<svg width="164" height="39" viewBox="0 0 164 39" fill="none" xmlns="http://www.w3.org/2000/svg">
<path d="M3.57628e-07 27.552V6.04801L6.048 3.8147e-06H17.472L23.52 6.04801V26.064L14.544 31.68V7.92H8.976V26.16L24.144 29.808V38.208L6.048 33.6L3.57628e-07 27.552ZM27.0983 27.552V3.8147e-06H35.9303V25.584H41.1623V3.8147e-06H50.0423V27.552L43.9943 33.6H33.1463L27.0983 27.552ZM68.6546 33.6H52.8626V26.256H65.4386V19.968H54.9266V13.008H64.5266V7.344H53.2466V3.8147e-06H67.7426L73.6946 5.952V13.536L70.5746 16.032L74.6066 19.248V27.648L68.6546 33.6ZM77.3951 33.6V3.8147e-06H84.6431L92.8511 18.048V3.8147e-06H100.963V33.6H93.7151L85.5071 15.552V33.6H77.3951ZM104.344 27.552V6.04801L110.392 3.8147e-06H123.544V8.208H113.8V25.392H123.784V33.6H110.392L104.344 27.552ZM126.614 33.6V3.8147e-06H135.446V12.288H140.774V3.8147e-06H149.654V33.6H140.774V20.352H135.446V33.6H126.614ZM153.912 33.6V25.296H162.072V33.6H153.912ZM154.536 22.176L152.952 3.8147e-06H163.032L161.4 22.176H154.536Z" fill="#FF8400"/>
</svg>
