<?xml version="1.0" encoding="UTF-8"?>
<svg id="Layer_2" data-name="Layer 2" xmlns="http://www.w3.org/2000/svg" viewBox="0 0 1135.9 266.21">
  <defs>
    <style>
      .cls-1 {
        fill: #ff8400;
        stroke-width: 0px;
      }
    </style>
  </defs>
  <g id="Layer_1-2" data-name="Layer 1">
    <g>
      <polygon class="cls-1" points="513.46 94.31 513.46 41.47 471.99 0 370.99 0 370.99 51.17 449.58 51.17 449.58 90.63 382.69 90.63 382.69 139.12 455.93 139.12 455.93 182.94 368.31 182.94 368.31 234.1 478.34 234.1 519.81 192.63 519.81 134.11 491.72 111.7 513.46 94.31"/>
      <polygon class="cls-1" points="286.79 178.25 250.34 178.25 250.34 0 188.8 0 188.8 191.96 230.94 234.1 306.52 234.1 348.66 191.96 348.66 0 286.79 0 286.79 178.25"/>
      <path class="cls-1" d="M163.87,181.6V42.14L121.73,0H42.14L0,42.14v149.83l42.14,42.14,126.08,32.11v-58.53l-33.26-8,28.91-18.09ZM62.54,55.18h38.79v136.42l-38.79-9.33V55.18Z"/>
      <polygon class="cls-1" points="646.93 125.75 589.74 0 539.24 0 539.24 234.1 595.76 234.1 595.76 108.36 652.95 234.1 703.45 234.1 703.45 0 646.93 0 646.93 125.75"/>
      <polygon class="cls-1" points="1124.53 154.51 1135.9 0 1065.67 0 1076.71 154.51 1124.53 154.51"/>
      <polygon class="cls-1" points="792.89 57.19 860.78 57.19 860.78 0 769.14 0 727 42.14 727 191.96 769.14 234.1 862.45 234.1 862.45 176.92 792.89 176.92 792.89 57.19"/>
      <rect class="cls-1" x="1072.36" y="176.25" width="56.85" height="57.86"/>
      <polygon class="cls-1" points="980.82 85.62 943.7 85.62 943.7 0 882.17 0 882.17 234.1 943.7 234.1 943.7 141.8 980.82 141.8 980.82 234.1 1042.69 234.1 1042.69 0 980.82 0 980.82 85.62"/>
    </g>
  </g>
</svg>